<?xml version="1.0" encoding="UTF-8"?>
<svg xmlns="http://www.w3.org/2000/svg" width="384" height="256" viewBox="0 0 384 256">
  <!-- Snowboarder Sprite Sheet: 6 columns x 4 rows = 24 frames, 64x64 per frame -->
  <!-- Character: Full body snowboarder with arms, legs, puffy jacket, snow pants -->
  <!-- Style: Late 80s neon, orange/yellow jacket, purple pants, teal/pink helmet -->

  <defs>
    <!-- Jacket gradient (orange/yellow) -->
    <linearGradient id="jacketGrad" x1="0%" y1="0%" x2="100%" y2="100%">
      <stop offset="0%" style="stop-color:#ffaa00"/>
      <stop offset="50%" style="stop-color:#ff6600"/>
      <stop offset="100%" style="stop-color:#ff4400"/>
    </linearGradient>
    <!-- Jacket teal accent -->
    <linearGradient id="jacketTeal" x1="0%" y1="0%" x2="100%" y2="0%">
      <stop offset="0%" style="stop-color:#00cccc"/>
      <stop offset="100%" style="stop-color:#00aaaa"/>
    </linearGradient>
    <!-- Pants gradient (purple/blue) -->
    <linearGradient id="pantsGrad" x1="0%" y1="0%" x2="0%" y2="100%">
      <stop offset="0%" style="stop-color:#6644aa"/>
      <stop offset="100%" style="stop-color:#4422aa"/>
    </linearGradient>
    <!-- Helmet gradient -->
    <linearGradient id="helmetGrad" x1="0%" y1="0%" x2="100%" y2="100%">
      <stop offset="0%" style="stop-color:#00dddd"/>
      <stop offset="100%" style="stop-color:#00aaaa"/>
    </linearGradient>
    <!-- Goggle gradient -->
    <linearGradient id="goggleGrad" x1="0%" y1="0%" x2="100%" y2="0%">
      <stop offset="0%" style="stop-color:#ff00ff"/>
      <stop offset="50%" style="stop-color:#ff66ff"/>
      <stop offset="100%" style="stop-color:#00ffff"/>
    </linearGradient>
    <!-- Board gradient -->
    <linearGradient id="boardGrad" x1="0%" y1="0%" x2="100%" y2="0%">
      <stop offset="0%" style="stop-color:#aa44cc"/>
      <stop offset="50%" style="stop-color:#cc66ee"/>
      <stop offset="100%" style="stop-color:#aa44cc"/>
    </linearGradient>
    <!-- Glow filter -->
    <filter id="glow" x="-30%" y="-30%" width="160%" height="160%">
      <feGaussianBlur stdDeviation="1" result="coloredBlur"/>
      <feMerge>
        <feMergeNode in="coloredBlur"/>
        <feMergeNode in="SourceGraphic"/>
      </feMerge>
    </filter>
  </defs>

  <!-- ROW 0: IDLE + CARVE LEFT -->

  <!-- Frame 0: Neutral idle (facing down-slope) -->
  <g transform="translate(32, 32)">
    <!-- Shadow -->
    <ellipse cx="0" cy="28" rx="16" ry="4" fill="rgba(0,0,0,0.3)"/>
    <!-- Snowboard -->
    <rect x="-18" y="22" width="36" height="5" rx="2.5" fill="url(#boardGrad)" filter="url(#glow)"/>
    <rect x="-6" y="23" width="4" height="3" fill="#222"/>
    <rect x="2" y="23" width="4" height="3" fill="#222"/>
    <!-- Left leg -->
    <path d="M-6,8 L-8,22" stroke="url(#pantsGrad)" stroke-width="7" stroke-linecap="round"/>
    <!-- Right leg -->
    <path d="M6,8 L8,22" stroke="url(#pantsGrad)" stroke-width="7" stroke-linecap="round"/>
    <!-- Body/Jacket -->
    <rect x="-10" y="-8" width="20" height="18" rx="4" fill="url(#jacketGrad)"/>
    <!-- Teal stripe on jacket -->
    <rect x="-10" y="-2" width="20" height="4" fill="url(#jacketTeal)"/>
    <!-- Left arm -->
    <path d="M-10,0 L-16,8" stroke="url(#jacketGrad)" stroke-width="5" stroke-linecap="round"/>
    <circle cx="-17" cy="9" r="3" fill="#2244aa"/>
    <!-- Right arm -->
    <path d="M10,0 L16,8" stroke="url(#jacketGrad)" stroke-width="5" stroke-linecap="round"/>
    <circle cx="17" cy="9" r="3" fill="#2244aa"/>
    <!-- Helmet -->
    <ellipse cx="0" cy="-14" rx="9" ry="8" fill="url(#helmetGrad)"/>
    <!-- Goggles -->
    <rect x="-8" y="-16" width="16" height="5" rx="2" fill="url(#goggleGrad)" filter="url(#glow)"/>
    <ellipse cx="-4" cy="-14" rx="2" ry="1" fill="rgba(255,255,255,0.5)"/>
  </g>

  <!-- Frame 1: Slight left lean (10°) -->
  <g transform="translate(96, 32) rotate(-8)">
    <ellipse cx="0" cy="28" rx="16" ry="4" fill="rgba(0,0,0,0.3)"/>
    <rect x="-18" y="22" width="36" height="5" rx="2.5" fill="url(#boardGrad)" filter="url(#glow)"/>
    <rect x="-6" y="23" width="4" height="3" fill="#222"/>
    <rect x="2" y="23" width="4" height="3" fill="#222"/>
    <path d="M-5,8 L-6,22" stroke="url(#pantsGrad)" stroke-width="7" stroke-linecap="round"/>
    <path d="M5,8 L6,22" stroke="url(#pantsGrad)" stroke-width="7" stroke-linecap="round"/>
    <rect x="-10" y="-8" width="20" height="18" rx="4" fill="url(#jacketGrad)"/>
    <rect x="-10" y="-2" width="20" height="4" fill="url(#jacketTeal)"/>
    <!-- Arms out for balance -->
    <path d="M-10,0 L-20,4" stroke="url(#jacketGrad)" stroke-width="5" stroke-linecap="round"/>
    <circle cx="-21" cy="5" r="3" fill="#2244aa"/>
    <path d="M10,0 L18,10" stroke="url(#jacketGrad)" stroke-width="5" stroke-linecap="round"/>
    <circle cx="19" cy="11" r="3" fill="#2244aa"/>
    <ellipse cx="0" cy="-14" rx="9" ry="8" fill="url(#helmetGrad)"/>
    <rect x="-8" y="-16" width="16" height="5" rx="2" fill="url(#goggleGrad)" filter="url(#glow)"/>
  </g>

  <!-- Frame 2: Medium left lean (20°) -->
  <g transform="translate(160, 32) rotate(-16)">
    <ellipse cx="0" cy="28" rx="16" ry="4" fill="rgba(0,0,0,0.3)"/>
    <rect x="-18" y="22" width="36" height="5" rx="2.5" fill="url(#boardGrad)" filter="url(#glow)"/>
    <rect x="-6" y="23" width="4" height="3" fill="#222"/>
    <rect x="2" y="23" width="4" height="3" fill="#222"/>
    <!-- Legs bend into turn -->
    <path d="M-4,8 L-4,22" stroke="url(#pantsGrad)" stroke-width="7" stroke-linecap="round"/>
    <path d="M4,8 L6,22" stroke="url(#pantsGrad)" stroke-width="7" stroke-linecap="round"/>
    <rect x="-10" y="-8" width="20" height="18" rx="4" fill="url(#jacketGrad)"/>
    <rect x="-10" y="-2" width="20" height="4" fill="url(#jacketTeal)"/>
    <path d="M-10,0 L-22,0" stroke="url(#jacketGrad)" stroke-width="5" stroke-linecap="round"/>
    <circle cx="-23" cy="0" r="3" fill="#2244aa"/>
    <path d="M10,0 L16,12" stroke="url(#jacketGrad)" stroke-width="5" stroke-linecap="round"/>
    <circle cx="17" cy="13" r="3" fill="#2244aa"/>
    <ellipse cx="0" cy="-14" rx="9" ry="8" fill="url(#helmetGrad)"/>
    <rect x="-8" y="-16" width="16" height="5" rx="2" fill="url(#goggleGrad)" filter="url(#glow)"/>
  </g>

  <!-- Frame 3: Hard left lean (30°) -->
  <g transform="translate(224, 32) rotate(-24)">
    <ellipse cx="0" cy="28" rx="16" ry="4" fill="rgba(0,0,0,0.3)"/>
    <rect x="-18" y="22" width="36" height="5" rx="2.5" fill="url(#boardGrad)" filter="url(#glow)"/>
    <rect x="-6" y="23" width="4" height="3" fill="#222"/>
    <rect x="2" y="23" width="4" height="3" fill="#222"/>
    <path d="M-3,8 L-2,22" stroke="url(#pantsGrad)" stroke-width="7" stroke-linecap="round"/>
    <path d="M5,8 L7,22" stroke="url(#pantsGrad)" stroke-width="7" stroke-linecap="round"/>
    <rect x="-10" y="-8" width="20" height="18" rx="4" fill="url(#jacketGrad)"/>
    <rect x="-10" y="-2" width="20" height="4" fill="url(#jacketTeal)"/>
    <path d="M-10,-2 L-24,-4" stroke="url(#jacketGrad)" stroke-width="5" stroke-linecap="round"/>
    <circle cx="-25" cy="-4" r="3" fill="#2244aa"/>
    <path d="M10,0 L14,14" stroke="url(#jacketGrad)" stroke-width="5" stroke-linecap="round"/>
    <circle cx="15" cy="15" r="3" fill="#2244aa"/>
    <ellipse cx="0" cy="-14" rx="9" ry="8" fill="url(#helmetGrad)"/>
    <rect x="-8" y="-16" width="16" height="5" rx="2" fill="url(#goggleGrad)" filter="url(#glow)"/>
    <!-- Snow spray -->
    <circle cx="20" cy="18" r="2" fill="rgba(255,255,255,0.7)"/>
    <circle cx="23" cy="14" r="1.5" fill="rgba(255,255,255,0.5)"/>
  </g>

  <!-- Frame 4: Max left carve (40°) -->
  <g transform="translate(288, 32) rotate(-32)">
    <ellipse cx="0" cy="28" rx="16" ry="4" fill="rgba(0,0,0,0.3)"/>
    <rect x="-18" y="22" width="36" height="5" rx="2.5" fill="url(#boardGrad)" filter="url(#glow)"/>
    <rect x="-6" y="23" width="4" height="3" fill="#222"/>
    <rect x="2" y="23" width="4" height="3" fill="#222"/>
    <path d="M-2,8 L0,22" stroke="url(#pantsGrad)" stroke-width="7" stroke-linecap="round"/>
    <path d="M6,8 L8,22" stroke="url(#pantsGrad)" stroke-width="7" stroke-linecap="round"/>
    <rect x="-10" y="-8" width="20" height="18" rx="4" fill="url(#jacketGrad)"/>
    <rect x="-10" y="-2" width="20" height="4" fill="url(#jacketTeal)"/>
    <path d="M-10,-4 L-26,-6" stroke="url(#jacketGrad)" stroke-width="5" stroke-linecap="round"/>
    <circle cx="-27" cy="-6" r="3" fill="#2244aa"/>
    <path d="M10,2 L12,16" stroke="url(#jacketGrad)" stroke-width="5" stroke-linecap="round"/>
    <circle cx="13" cy="17" r="3" fill="#2244aa"/>
    <ellipse cx="0" cy="-14" rx="9" ry="8" fill="url(#helmetGrad)"/>
    <rect x="-8" y="-16" width="16" height="5" rx="2" fill="url(#goggleGrad)" filter="url(#glow)"/>
    <circle cx="22" cy="16" r="2.5" fill="rgba(255,255,255,0.8)"/>
    <circle cx="26" cy="12" r="2" fill="rgba(255,255,255,0.6)"/>
    <circle cx="24" cy="8" r="1.5" fill="rgba(255,255,255,0.4)"/>
  </g>

  <!-- Frame 5: Extreme left with spray -->
  <g transform="translate(352, 32) rotate(-38)">
    <ellipse cx="0" cy="28" rx="16" ry="4" fill="rgba(0,0,0,0.3)"/>
    <rect x="-18" y="22" width="36" height="5" rx="2.5" fill="url(#boardGrad)" filter="url(#glow)"/>
    <rect x="-6" y="23" width="4" height="3" fill="#222"/>
    <rect x="2" y="23" width="4" height="3" fill="#222"/>
    <path d="M-1,8 L1,22" stroke="url(#pantsGrad)" stroke-width="7" stroke-linecap="round"/>
    <path d="M7,8 L9,22" stroke="url(#pantsGrad)" stroke-width="7" stroke-linecap="round"/>
    <rect x="-10" y="-8" width="20" height="18" rx="4" fill="url(#jacketGrad)"/>
    <rect x="-10" y="-2" width="20" height="4" fill="url(#jacketTeal)"/>
    <path d="M-10,-6 L-28,-8" stroke="url(#jacketGrad)" stroke-width="5" stroke-linecap="round"/>
    <circle cx="-29" cy="-8" r="3" fill="#2244aa"/>
    <path d="M10,4 L10,18" stroke="url(#jacketGrad)" stroke-width="5" stroke-linecap="round"/>
    <circle cx="10" cy="19" r="3" fill="#2244aa"/>
    <ellipse cx="0" cy="-14" rx="9" ry="8" fill="url(#helmetGrad)"/>
    <rect x="-8" y="-16" width="16" height="5" rx="2" fill="url(#goggleGrad)" filter="url(#glow)"/>
    <circle cx="24" cy="14" r="3" fill="rgba(255,255,255,0.9)"/>
    <circle cx="28" cy="10" r="2.5" fill="rgba(255,255,255,0.7)"/>
    <circle cx="26" cy="6" r="2" fill="rgba(255,255,255,0.5)"/>
    <circle cx="22" cy="4" r="1.5" fill="rgba(255,255,255,0.3)"/>
  </g>

  <!-- ROW 1: CARVE RIGHT + TUCK -->

  <!-- Frame 6: Slight right lean -->
  <g transform="translate(32, 96) rotate(8)">
    <ellipse cx="0" cy="28" rx="16" ry="4" fill="rgba(0,0,0,0.3)"/>
    <rect x="-18" y="22" width="36" height="5" rx="2.5" fill="url(#boardGrad)" filter="url(#glow)"/>
    <rect x="-6" y="23" width="4" height="3" fill="#222"/>
    <rect x="2" y="23" width="4" height="3" fill="#222"/>
    <path d="M-5,8 L-6,22" stroke="url(#pantsGrad)" stroke-width="7" stroke-linecap="round"/>
    <path d="M5,8 L6,22" stroke="url(#pantsGrad)" stroke-width="7" stroke-linecap="round"/>
    <rect x="-10" y="-8" width="20" height="18" rx="4" fill="url(#jacketGrad)"/>
    <rect x="-10" y="-2" width="20" height="4" fill="url(#jacketTeal)"/>
    <path d="M-10,0 L-18,10" stroke="url(#jacketGrad)" stroke-width="5" stroke-linecap="round"/>
    <circle cx="-19" cy="11" r="3" fill="#2244aa"/>
    <path d="M10,0 L20,4" stroke="url(#jacketGrad)" stroke-width="5" stroke-linecap="round"/>
    <circle cx="21" cy="5" r="3" fill="#2244aa"/>
    <ellipse cx="0" cy="-14" rx="9" ry="8" fill="url(#helmetGrad)"/>
    <rect x="-8" y="-16" width="16" height="5" rx="2" fill="url(#goggleGrad)" filter="url(#glow)"/>
  </g>

  <!-- Frame 7: Medium right lean -->
  <g transform="translate(96, 96) rotate(16)">
    <ellipse cx="0" cy="28" rx="16" ry="4" fill="rgba(0,0,0,0.3)"/>
    <rect x="-18" y="22" width="36" height="5" rx="2.5" fill="url(#boardGrad)" filter="url(#glow)"/>
    <rect x="-6" y="23" width="4" height="3" fill="#222"/>
    <rect x="2" y="23" width="4" height="3" fill="#222"/>
    <path d="M-4,8 L-6,22" stroke="url(#pantsGrad)" stroke-width="7" stroke-linecap="round"/>
    <path d="M4,8 L4,22" stroke="url(#pantsGrad)" stroke-width="7" stroke-linecap="round"/>
    <rect x="-10" y="-8" width="20" height="18" rx="4" fill="url(#jacketGrad)"/>
    <rect x="-10" y="-2" width="20" height="4" fill="url(#jacketTeal)"/>
    <path d="M-10,0 L-16,12" stroke="url(#jacketGrad)" stroke-width="5" stroke-linecap="round"/>
    <circle cx="-17" cy="13" r="3" fill="#2244aa"/>
    <path d="M10,0 L22,0" stroke="url(#jacketGrad)" stroke-width="5" stroke-linecap="round"/>
    <circle cx="23" cy="0" r="3" fill="#2244aa"/>
    <ellipse cx="0" cy="-14" rx="9" ry="8" fill="url(#helmetGrad)"/>
    <rect x="-8" y="-16" width="16" height="5" rx="2" fill="url(#goggleGrad)" filter="url(#glow)"/>
  </g>

  <!-- Frame 8: Hard right lean -->
  <g transform="translate(160, 96) rotate(24)">
    <ellipse cx="0" cy="28" rx="16" ry="4" fill="rgba(0,0,0,0.3)"/>
    <rect x="-18" y="22" width="36" height="5" rx="2.5" fill="url(#boardGrad)" filter="url(#glow)"/>
    <rect x="-6" y="23" width="4" height="3" fill="#222"/>
    <rect x="2" y="23" width="4" height="3" fill="#222"/>
    <path d="M-5,8 L-7,22" stroke="url(#pantsGrad)" stroke-width="7" stroke-linecap="round"/>
    <path d="M3,8 L2,22" stroke="url(#pantsGrad)" stroke-width="7" stroke-linecap="round"/>
    <rect x="-10" y="-8" width="20" height="18" rx="4" fill="url(#jacketGrad)"/>
    <rect x="-10" y="-2" width="20" height="4" fill="url(#jacketTeal)"/>
    <path d="M-10,0 L-14,14" stroke="url(#jacketGrad)" stroke-width="5" stroke-linecap="round"/>
    <circle cx="-15" cy="15" r="3" fill="#2244aa"/>
    <path d="M10,-2 L24,-4" stroke="url(#jacketGrad)" stroke-width="5" stroke-linecap="round"/>
    <circle cx="25" cy="-4" r="3" fill="#2244aa"/>
    <ellipse cx="0" cy="-14" rx="9" ry="8" fill="url(#helmetGrad)"/>
    <rect x="-8" y="-16" width="16" height="5" rx="2" fill="url(#goggleGrad)" filter="url(#glow)"/>
    <circle cx="-20" cy="18" r="2" fill="rgba(255,255,255,0.7)"/>
    <circle cx="-23" cy="14" r="1.5" fill="rgba(255,255,255,0.5)"/>
  </g>

  <!-- Frame 9: Max right carve -->
  <g transform="translate(224, 96) rotate(32)">
    <ellipse cx="0" cy="28" rx="16" ry="4" fill="rgba(0,0,0,0.3)"/>
    <rect x="-18" y="22" width="36" height="5" rx="2.5" fill="url(#boardGrad)" filter="url(#glow)"/>
    <rect x="-6" y="23" width="4" height="3" fill="#222"/>
    <rect x="2" y="23" width="4" height="3" fill="#222"/>
    <path d="M-6,8 L-8,22" stroke="url(#pantsGrad)" stroke-width="7" stroke-linecap="round"/>
    <path d="M2,8 L0,22" stroke="url(#pantsGrad)" stroke-width="7" stroke-linecap="round"/>
    <rect x="-10" y="-8" width="20" height="18" rx="4" fill="url(#jacketGrad)"/>
    <rect x="-10" y="-2" width="20" height="4" fill="url(#jacketTeal)"/>
    <path d="M-10,2 L-12,16" stroke="url(#jacketGrad)" stroke-width="5" stroke-linecap="round"/>
    <circle cx="-13" cy="17" r="3" fill="#2244aa"/>
    <path d="M10,-4 L26,-6" stroke="url(#jacketGrad)" stroke-width="5" stroke-linecap="round"/>
    <circle cx="27" cy="-6" r="3" fill="#2244aa"/>
    <ellipse cx="0" cy="-14" rx="9" ry="8" fill="url(#helmetGrad)"/>
    <rect x="-8" y="-16" width="16" height="5" rx="2" fill="url(#goggleGrad)" filter="url(#glow)"/>
    <circle cx="-22" cy="16" r="2.5" fill="rgba(255,255,255,0.8)"/>
    <circle cx="-26" cy="12" r="2" fill="rgba(255,255,255,0.6)"/>
  </g>

  <!-- Frame 10: Extreme right with spray -->
  <g transform="translate(288, 96) rotate(38)">
    <ellipse cx="0" cy="28" rx="16" ry="4" fill="rgba(0,0,0,0.3)"/>
    <rect x="-18" y="22" width="36" height="5" rx="2.5" fill="url(#boardGrad)" filter="url(#glow)"/>
    <rect x="-6" y="23" width="4" height="3" fill="#222"/>
    <rect x="2" y="23" width="4" height="3" fill="#222"/>
    <path d="M-7,8 L-9,22" stroke="url(#pantsGrad)" stroke-width="7" stroke-linecap="round"/>
    <path d="M1,8 L-1,22" stroke="url(#pantsGrad)" stroke-width="7" stroke-linecap="round"/>
    <rect x="-10" y="-8" width="20" height="18" rx="4" fill="url(#jacketGrad)"/>
    <rect x="-10" y="-2" width="20" height="4" fill="url(#jacketTeal)"/>
    <path d="M-10,4 L-10,18" stroke="url(#jacketGrad)" stroke-width="5" stroke-linecap="round"/>
    <circle cx="-10" cy="19" r="3" fill="#2244aa"/>
    <path d="M10,-6 L28,-8" stroke="url(#jacketGrad)" stroke-width="5" stroke-linecap="round"/>
    <circle cx="29" cy="-8" r="3" fill="#2244aa"/>
    <ellipse cx="0" cy="-14" rx="9" ry="8" fill="url(#helmetGrad)"/>
    <rect x="-8" y="-16" width="16" height="5" rx="2" fill="url(#goggleGrad)" filter="url(#glow)"/>
    <circle cx="-24" cy="14" r="3" fill="rgba(255,255,255,0.9)"/>
    <circle cx="-28" cy="10" r="2.5" fill="rgba(255,255,255,0.7)"/>
    <circle cx="-26" cy="6" r="2" fill="rgba(255,255,255,0.5)"/>
  </g>

  <!-- Frame 11: Tuck/Speed crouch -->
  <g transform="translate(352, 96)">
    <ellipse cx="0" cy="28" rx="16" ry="4" fill="rgba(0,0,0,0.3)"/>
    <rect x="-18" y="22" width="36" height="5" rx="2.5" fill="url(#boardGrad)" filter="url(#glow)"/>
    <rect x="-6" y="23" width="4" height="3" fill="#222"/>
    <rect x="2" y="23" width="4" height="3" fill="#222"/>
    <!-- Crouched legs -->
    <path d="M-6,4 L-8,22" stroke="url(#pantsGrad)" stroke-width="7" stroke-linecap="round"/>
    <path d="M6,4 L8,22" stroke="url(#pantsGrad)" stroke-width="7" stroke-linecap="round"/>
    <!-- Crouched body -->
    <rect x="-12" y="-6" width="24" height="12" rx="4" fill="url(#jacketGrad)"/>
    <rect x="-12" y="-2" width="24" height="4" fill="url(#jacketTeal)"/>
    <!-- Arms tucked forward -->
    <path d="M-10,-2 L-6,10" stroke="url(#jacketGrad)" stroke-width="5" stroke-linecap="round"/>
    <circle cx="-5" cy="11" r="3" fill="#2244aa"/>
    <path d="M10,-2 L6,10" stroke="url(#jacketGrad)" stroke-width="5" stroke-linecap="round"/>
    <circle cx="5" cy="11" r="3" fill="#2244aa"/>
    <!-- Head lower -->
    <ellipse cx="0" cy="-10" rx="9" ry="7" fill="url(#helmetGrad)"/>
    <rect x="-8" y="-12" width="16" height="5" rx="2" fill="url(#goggleGrad)" filter="url(#glow)"/>
  </g>

  <!-- ROW 2: AIRBORNE / TRICKS -->

  <!-- Frame 12: Jump launch -->
  <g transform="translate(32, 160)">
    <ellipse cx="0" cy="32" rx="12" ry="3" fill="rgba(0,0,0,0.15)"/>
    <rect x="-18" y="20" width="36" height="5" rx="2.5" fill="url(#boardGrad)" filter="url(#glow)"/>
    <rect x="-6" y="21" width="4" height="3" fill="#222"/>
    <rect x="2" y="21" width="4" height="3" fill="#222"/>
    <path d="M-6,6 L-6,20" stroke="url(#pantsGrad)" stroke-width="7" stroke-linecap="round"/>
    <path d="M6,6 L6,20" stroke="url(#pantsGrad)" stroke-width="7" stroke-linecap="round"/>
    <rect x="-10" y="-10" width="20" height="18" rx="4" fill="url(#jacketGrad)"/>
    <rect x="-10" y="-4" width="20" height="4" fill="url(#jacketTeal)"/>
    <!-- Arms up -->
    <path d="M-10,-4 L-18,-14" stroke="url(#jacketGrad)" stroke-width="5" stroke-linecap="round"/>
    <circle cx="-19" cy="-15" r="3" fill="#2244aa"/>
    <path d="M10,-4 L18,-14" stroke="url(#jacketGrad)" stroke-width="5" stroke-linecap="round"/>
    <circle cx="19" cy="-15" r="3" fill="#2244aa"/>
    <ellipse cx="0" cy="-16" rx="9" ry="8" fill="url(#helmetGrad)"/>
    <rect x="-8" y="-18" width="16" height="5" rx="2" fill="url(#goggleGrad)" filter="url(#glow)"/>
  </g>

  <!-- Frame 13: Air wave 1 -->
  <g transform="translate(96, 160)">
    <ellipse cx="0" cy="34" rx="10" ry="2" fill="rgba(0,0,0,0.1)"/>
    <rect x="-18" y="20" width="36" height="5" rx="2.5" fill="url(#boardGrad)" filter="url(#glow)"/>
    <rect x="-6" y="21" width="4" height="3" fill="#222"/>
    <rect x="2" y="21" width="4" height="3" fill="#222"/>
    <path d="M-6,6 L-6,20" stroke="url(#pantsGrad)" stroke-width="7" stroke-linecap="round"/>
    <path d="M6,6 L6,20" stroke="url(#pantsGrad)" stroke-width="7" stroke-linecap="round"/>
    <rect x="-10" y="-10" width="20" height="18" rx="4" fill="url(#jacketGrad)"/>
    <rect x="-10" y="-4" width="20" height="4" fill="url(#jacketTeal)"/>
    <!-- Left arm high, right low -->
    <path d="M-10,-4 L-22,-12" stroke="url(#jacketGrad)" stroke-width="5" stroke-linecap="round"/>
    <circle cx="-23" cy="-13" r="3" fill="#2244aa"/>
    <path d="M10,-2 L20,4" stroke="url(#jacketGrad)" stroke-width="5" stroke-linecap="round"/>
    <circle cx="21" cy="5" r="3" fill="#2244aa"/>
    <ellipse cx="0" cy="-16" rx="9" ry="8" fill="url(#helmetGrad)"/>
    <rect x="-8" y="-18" width="16" height="5" rx="2" fill="url(#goggleGrad)" filter="url(#glow)"/>
  </g>

  <!-- Frame 14: Air wave 2 -->
  <g transform="translate(160, 160)">
    <ellipse cx="0" cy="34" rx="10" ry="2" fill="rgba(0,0,0,0.1)"/>
    <rect x="-18" y="20" width="36" height="5" rx="2.5" fill="url(#boardGrad)" filter="url(#glow)"/>
    <rect x="-6" y="21" width="4" height="3" fill="#222"/>
    <rect x="2" y="21" width="4" height="3" fill="#222"/>
    <path d="M-6,6 L-6,20" stroke="url(#pantsGrad)" stroke-width="7" stroke-linecap="round"/>
    <path d="M6,6 L6,20" stroke="url(#pantsGrad)" stroke-width="7" stroke-linecap="round"/>
    <rect x="-10" y="-10" width="20" height="18" rx="4" fill="url(#jacketGrad)"/>
    <rect x="-10" y="-4" width="20" height="4" fill="url(#jacketTeal)"/>
    <!-- Right arm high, left low -->
    <path d="M-10,-2 L-20,4" stroke="url(#jacketGrad)" stroke-width="5" stroke-linecap="round"/>
    <circle cx="-21" cy="5" r="3" fill="#2244aa"/>
    <path d="M10,-4 L22,-12" stroke="url(#jacketGrad)" stroke-width="5" stroke-linecap="round"/>
    <circle cx="23" cy="-13" r="3" fill="#2244aa"/>
    <ellipse cx="0" cy="-16" rx="9" ry="8" fill="url(#helmetGrad)"/>
    <rect x="-8" y="-18" width="16" height="5" rx="2" fill="url(#goggleGrad)" filter="url(#glow)"/>
  </g>

  <!-- Frame 15: 180 spin (side view) -->
  <g transform="translate(224, 160)">
    <ellipse cx="0" cy="34" rx="10" ry="2" fill="rgba(0,0,0,0.1)"/>
    <!-- Board sideways (foreshortened) -->
    <ellipse cx="0" cy="20" rx="5" ry="18" fill="url(#boardGrad)" filter="url(#glow)"/>
    <!-- Side view of body -->
    <path d="M0,6 L0,18" stroke="url(#pantsGrad)" stroke-width="8" stroke-linecap="round"/>
    <ellipse cx="0" cy="-2" rx="6" ry="10" fill="url(#jacketGrad)"/>
    <rect x="-6" y="-4" width="12" height="4" fill="url(#jacketTeal)"/>
    <!-- Arms out for spin -->
    <path d="M-4,-2 L-14,-6" stroke="url(#jacketGrad)" stroke-width="5" stroke-linecap="round"/>
    <circle cx="-15" cy="-7" r="3" fill="#2244aa"/>
    <path d="M4,-2 L14,-6" stroke="url(#jacketGrad)" stroke-width="5" stroke-linecap="round"/>
    <circle cx="15" cy="-7" r="3" fill="#2244aa"/>
    <ellipse cx="0" cy="-14" rx="8" ry="7" fill="url(#helmetGrad)"/>
    <rect x="-7" y="-16" width="14" height="5" rx="2" fill="url(#goggleGrad)" filter="url(#glow)"/>
  </g>

  <!-- Frame 16: Board grab (Indy) -->
  <g transform="translate(288, 160)">
    <ellipse cx="0" cy="34" rx="10" ry="2" fill="rgba(0,0,0,0.1)"/>
    <rect x="-18" y="18" width="36" height="5" rx="2.5" fill="url(#boardGrad)" filter="url(#glow)"/>
    <rect x="-6" y="19" width="4" height="3" fill="#222"/>
    <rect x="2" y="19" width="4" height="3" fill="#222"/>
    <!-- Legs tucked up -->
    <path d="M-5,4 L-5,18" stroke="url(#pantsGrad)" stroke-width="7" stroke-linecap="round"/>
    <path d="M5,4 L5,18" stroke="url(#pantsGrad)" stroke-width="7" stroke-linecap="round"/>
    <rect x="-10" y="-10" width="20" height="16" rx="4" fill="url(#jacketGrad)"/>
    <rect x="-10" y="-4" width="20" height="4" fill="url(#jacketTeal)"/>
    <!-- Right hand grabbing board -->
    <path d="M10,0 L8,16" stroke="url(#jacketGrad)" stroke-width="5" stroke-linecap="round"/>
    <circle cx="7" cy="17" r="3" fill="#2244aa"/>
    <!-- Left arm out for style -->
    <path d="M-10,-4 L-22,-10" stroke="url(#jacketGrad)" stroke-width="5" stroke-linecap="round"/>
    <circle cx="-23" cy="-11" r="3" fill="#2244aa"/>
    <ellipse cx="0" cy="-16" rx="9" ry="8" fill="url(#helmetGrad)"/>
    <rect x="-8" y="-18" width="16" height="5" rx="2" fill="url(#goggleGrad)" filter="url(#glow)"/>
  </g>

  <!-- Frame 17: Landing prep -->
  <g transform="translate(352, 160)">
    <ellipse cx="0" cy="30" rx="14" ry="3" fill="rgba(0,0,0,0.2)"/>
    <rect x="-18" y="22" width="36" height="5" rx="2.5" fill="url(#boardGrad)" filter="url(#glow)"/>
    <rect x="-6" y="23" width="4" height="3" fill="#222"/>
    <rect x="2" y="23" width="4" height="3" fill="#222"/>
    <path d="M-6,8 L-6,22" stroke="url(#pantsGrad)" stroke-width="7" stroke-linecap="round"/>
    <path d="M6,8 L6,22" stroke="url(#pantsGrad)" stroke-width="7" stroke-linecap="round"/>
    <rect x="-10" y="-8" width="20" height="18" rx="4" fill="url(#jacketGrad)"/>
    <rect x="-10" y="-2" width="20" height="4" fill="url(#jacketTeal)"/>
    <!-- Arms out for balance -->
    <path d="M-10,-2 L-20,2" stroke="url(#jacketGrad)" stroke-width="5" stroke-linecap="round"/>
    <circle cx="-21" cy="3" r="3" fill="#2244aa"/>
    <path d="M10,-2 L20,2" stroke="url(#jacketGrad)" stroke-width="5" stroke-linecap="round"/>
    <circle cx="21" cy="3" r="3" fill="#2244aa"/>
    <ellipse cx="0" cy="-14" rx="9" ry="8" fill="url(#helmetGrad)"/>
    <rect x="-8" y="-16" width="16" height="5" rx="2" fill="url(#goggleGrad)" filter="url(#glow)"/>
  </g>

  <!-- ROW 3: CRASH / WIPEOUT -->

  <!-- Frame 18: Initial tumble -->
  <g transform="translate(32, 224) rotate(20)">
    <ellipse cx="4" cy="26" rx="16" ry="4" fill="rgba(0,0,0,0.3)"/>
    <rect x="-18" y="20" width="36" height="5" rx="2.5" fill="url(#boardGrad)" filter="url(#glow)"/>
    <path d="M-4,6 L-6,20" stroke="url(#pantsGrad)" stroke-width="7" stroke-linecap="round"/>
    <path d="M6,6 L8,20" stroke="url(#pantsGrad)" stroke-width="7" stroke-linecap="round"/>
    <rect x="-10" y="-8" width="20" height="16" rx="4" fill="url(#jacketGrad)"/>
    <rect x="-10" y="-2" width="20" height="4" fill="url(#jacketTeal)"/>
    <path d="M-10,-2 L-20,-10" stroke="url(#jacketGrad)" stroke-width="5" stroke-linecap="round"/>
    <circle cx="-21" cy="-11" r="3" fill="#2244aa"/>
    <path d="M10,2 L20,8" stroke="url(#jacketGrad)" stroke-width="5" stroke-linecap="round"/>
    <circle cx="21" cy="9" r="3" fill="#2244aa"/>
    <ellipse cx="0" cy="-14" rx="9" ry="8" fill="url(#helmetGrad)"/>
    <rect x="-8" y="-16" width="16" height="5" rx="2" fill="url(#goggleGrad)" filter="url(#glow)"/>
  </g>

  <!-- Frame 19: Mid tumble -->
  <g transform="translate(96, 224) rotate(50)">
    <rect x="-18" y="18" width="36" height="5" rx="2.5" fill="url(#boardGrad)" filter="url(#glow)"/>
    <path d="M-4,4 L-4,18" stroke="url(#pantsGrad)" stroke-width="7" stroke-linecap="round"/>
    <path d="M4,4 L4,18" stroke="url(#pantsGrad)" stroke-width="7" stroke-linecap="round"/>
    <rect x="-10" y="-8" width="20" height="14" rx="4" fill="url(#jacketGrad)"/>
    <rect x="-10" y="-2" width="20" height="4" fill="url(#jacketTeal)"/>
    <path d="M-10,0 L-22,2" stroke="url(#jacketGrad)" stroke-width="5" stroke-linecap="round"/>
    <circle cx="-23" cy="3" r="3" fill="#2244aa"/>
    <path d="M10,0 L22,6" stroke="url(#jacketGrad)" stroke-width="5" stroke-linecap="round"/>
    <circle cx="23" cy="7" r="3" fill="#2244aa"/>
    <ellipse cx="0" cy="-14" rx="9" ry="8" fill="url(#helmetGrad)"/>
    <rect x="-8" y="-16" width="16" height="5" rx="2" fill="url(#goggleGrad)" filter="url(#glow)"/>
  </g>

  <!-- Frame 20: Upside down -->
  <g transform="translate(160, 224) rotate(100)">
    <rect x="-18" y="16" width="36" height="5" rx="2.5" fill="url(#boardGrad)" filter="url(#glow)"/>
    <path d="M-4,2 L-4,16" stroke="url(#pantsGrad)" stroke-width="7" stroke-linecap="round"/>
    <path d="M4,2 L4,16" stroke="url(#pantsGrad)" stroke-width="7" stroke-linecap="round"/>
    <rect x="-10" y="-10" width="20" height="14" rx="4" fill="url(#jacketGrad)"/>
    <rect x="-10" y="-4" width="20" height="4" fill="url(#jacketTeal)"/>
    <path d="M-10,-2 L-20,4" stroke="url(#jacketGrad)" stroke-width="5" stroke-linecap="round"/>
    <circle cx="-21" cy="5" r="3" fill="#2244aa"/>
    <path d="M10,-2 L20,4" stroke="url(#jacketGrad)" stroke-width="5" stroke-linecap="round"/>
    <circle cx="21" cy="5" r="3" fill="#2244aa"/>
    <ellipse cx="0" cy="-16" rx="9" ry="8" fill="url(#helmetGrad)"/>
    <rect x="-8" y="-18" width="16" height="5" rx="2" fill="url(#goggleGrad)" filter="url(#glow)"/>
  </g>

  <!-- Frame 21: Coming down -->
  <g transform="translate(224, 224) rotate(140)">
    <rect x="-18" y="16" width="36" height="5" rx="2.5" fill="url(#boardGrad)" filter="url(#glow)"/>
    <path d="M-4,2 L-4,16" stroke="url(#pantsGrad)" stroke-width="7" stroke-linecap="round"/>
    <path d="M4,2 L4,16" stroke="url(#pantsGrad)" stroke-width="7" stroke-linecap="round"/>
    <rect x="-10" y="-10" width="20" height="14" rx="4" fill="url(#jacketGrad)"/>
    <rect x="-10" y="-4" width="20" height="4" fill="url(#jacketTeal)"/>
    <path d="M-10,-4 L-18,6" stroke="url(#jacketGrad)" stroke-width="5" stroke-linecap="round"/>
    <circle cx="-19" cy="7" r="3" fill="#2244aa"/>
    <path d="M10,-4 L18,6" stroke="url(#jacketGrad)" stroke-width="5" stroke-linecap="round"/>
    <circle cx="19" cy="7" r="3" fill="#2244aa"/>
    <ellipse cx="0" cy="-16" rx="9" ry="8" fill="url(#helmetGrad)"/>
    <rect x="-8" y="-18" width="16" height="5" rx="2" fill="url(#goggleGrad)" filter="url(#glow)"/>
  </g>

  <!-- Frame 22: Face plant (board detached) -->
  <g transform="translate(288, 224)">
    <ellipse cx="0" cy="20" rx="18" ry="5" fill="rgba(0,0,0,0.3)"/>
    <!-- Board flying off -->
    <g transform="translate(14, -12) rotate(35)">
      <rect x="-14" y="0" width="28" height="4" rx="2" fill="url(#boardGrad)" filter="url(#glow)"/>
    </g>
    <!-- Body face down -->
    <ellipse cx="0" cy="12" rx="12" ry="8" fill="url(#jacketGrad)"/>
    <rect x="-12" y="10" width="24" height="4" fill="url(#jacketTeal)"/>
    <!-- Arms splayed -->
    <path d="M-10,10 L-22,6" stroke="url(#jacketGrad)" stroke-width="5" stroke-linecap="round"/>
    <circle cx="-23" cy="5" r="3" fill="#2244aa"/>
    <path d="M10,10 L22,6" stroke="url(#jacketGrad)" stroke-width="5" stroke-linecap="round"/>
    <circle cx="23" cy="5" r="3" fill="#2244aa"/>
    <!-- Legs up -->
    <path d="M-4,14 L-6,24" stroke="url(#pantsGrad)" stroke-width="7" stroke-linecap="round"/>
    <path d="M4,14 L6,24" stroke="url(#pantsGrad)" stroke-width="7" stroke-linecap="round"/>
    <!-- Head down -->
    <ellipse cx="0" cy="4" rx="9" ry="7" fill="url(#helmetGrad)"/>
    <rect x="-8" y="2" width="16" height="5" rx="2" fill="url(#goggleGrad)" filter="url(#glow)"/>
  </g>

  <!-- Frame 23: Dazed/Recovery with stars -->
  <g transform="translate(352, 224)">
    <ellipse cx="0" cy="26" rx="16" ry="4" fill="rgba(0,0,0,0.3)"/>
    <!-- Stars circling head -->
    <text x="-14" y="-20" font-size="8" fill="#ffff00">★</text>
    <text x="10" y="-22" font-size="6" fill="#ffff00">★</text>
    <text x="-2" y="-26" font-size="7" fill="#ffff00">★</text>
    <!-- Sitting position -->
    <path d="M-8,14 L-10,24" stroke="url(#pantsGrad)" stroke-width="7" stroke-linecap="round"/>
    <path d="M8,14 L10,24" stroke="url(#pantsGrad)" stroke-width="7" stroke-linecap="round"/>
    <rect x="-12" y="0" width="24" height="16" rx="4" fill="url(#jacketGrad)"/>
    <rect x="-12" y="6" width="24" height="4" fill="url(#jacketTeal)"/>
    <!-- Arms resting -->
    <path d="M-12,8 L-18,16" stroke="url(#jacketGrad)" stroke-width="5" stroke-linecap="round"/>
    <circle cx="-19" cy="17" r="3" fill="#2244aa"/>
    <path d="M12,8 L18,16" stroke="url(#jacketGrad)" stroke-width="5" stroke-linecap="round"/>
    <circle cx="19" cy="17" r="3" fill="#2244aa"/>
    <ellipse cx="0" cy="-8" rx="9" ry="8" fill="url(#helmetGrad)"/>
    <rect x="-8" y="-10" width="16" height="5" rx="2" fill="url(#goggleGrad)" filter="url(#glow)"/>
    <!-- Dizzy swirls on goggles -->
    <text x="-5" y="-6" font-size="5" fill="#000">@</text>
    <text x="2" y="-6" font-size="5" fill="#000">@</text>
  </g>
</svg>
